<?xml version="1.0" encoding="UTF-8"?>
<svg xmlns="http://www.w3.org/2000/svg" width="551" height="574" viewBox="0 0 551 574" role="img" aria-label="Bitcoin outlined logo">
  <rect width="551" height="574" fill="#000000"/>
  <circle cx="274.50" cy="288.50" r="248.00" fill="none" stroke="#ffffff" stroke-width="13.00"/>
  <path d="M 255.0 126.0 L 255.0 129.0 L 254.0 130.0 L 254.0 135.0 L 253.0 136.0 L 253.0 141.0 L 252.0 142.0 L 252.0 148.0 L 251.0 149.0 L 251.0 154.0 L 250.0 155.0 L 250.0 160.0 L 249.0 161.0 L 249.0 166.0 L 247.0 170.0 L 242.0 170.0 L 241.0 169.0 L 235.0 169.0 L 234.0 168.0 L 229.0 168.0 L 228.0 167.0 L 224.0 167.0 L 223.0 166.0 L 218.0 166.0 L 217.0 165.0 L 211.0 165.0 L 210.0 164.0 L 205.0 164.0 L 204.0 163.0 L 199.0 163.0 L 198.0 162.0 L 193.0 162.0 L 192.0 161.0 L 189.0 161.0 L 189.0 163.0 L 188.0 164.0 L 188.0 169.0 L 187.0 170.0 L 187.0 175.0 L 186.0 176.0 L 186.0 182.0 L 185.0 183.0 L 185.0 187.0 L 184.0 188.0 L 184.0 191.0 L 185.0 192.0 L 191.0 192.0 L 192.0 193.0 L 198.0 193.0 L 199.0 194.0 L 203.0 194.0 L 204.0 195.0 L 207.0 195.0 L 208.0 196.0 L 210.0 196.0 L 212.0 197.0 L 217.0 201.0 L 219.0 205.0 L 219.0 207.0 L 220.0 208.0 L 220.0 212.0 L 219.0 213.0 L 219.0 218.0 L 218.0 219.0 L 218.0 224.0 L 217.0 225.0 L 217.0 230.0 L 216.0 231.0 L 216.0 236.0 L 215.0 237.0 L 215.0 242.0 L 214.0 243.0 L 214.0 248.0 L 213.0 249.0 L 213.0 255.0 L 212.0 256.0 L 212.0 261.0 L 211.0 262.0 L 211.0 267.0 L 210.0 268.0 L 210.0 273.0 L 209.0 274.0 L 209.0 279.0 L 208.0 280.0 L 208.0 285.0 L 207.0 286.0 L 207.0 291.0 L 206.0 292.0 L 206.0 297.0 L 205.0 298.0 L 205.0 303.0 L 204.0 304.0 L 204.0 309.0 L 203.0 310.0 L 203.0 315.0 L 202.0 316.0 L 202.0 321.0 L 201.0 322.0 L 201.0 327.0 L 200.0 328.0 L 200.0 334.0 L 199.0 335.0 L 199.0 340.0 L 198.0 341.0 L 198.0 343.0 L 197.0 345.0 L 192.0 350.0 L 180.0 350.0 L 179.0 349.0 L 174.0 349.0 L 173.0 348.0 L 164.0 347.0 L 164.0 350.0 L 163.0 351.0 L 163.0 354.0 L 162.0 355.0 L 162.0 358.0 L 161.0 359.0 L 161.0 362.0 L 160.0 363.0 L 160.0 366.0 L 159.0 367.0 L 159.0 370.0 L 158.0 371.0 L 158.0 375.0 L 157.0 376.0 L 157.0 379.0 L 156.0 380.0 L 157.0 381.0 L 161.0 381.0 L 162.0 382.0 L 167.0 382.0 L 168.0 383.0 L 173.0 383.0 L 174.0 384.0 L 179.0 384.0 L 180.0 385.0 L 186.0 385.0 L 187.0 386.0 L 192.0 386.0 L 193.0 387.0 L 198.0 387.0 L 199.0 388.0 L 203.0 388.0 L 204.0 389.0 L 209.0 389.0 L 212.0 391.0 L 211.0 392.0 L 211.0 397.0 L 210.0 398.0 L 210.0 403.0 L 209.0 404.0 L 209.0 409.0 L 208.0 410.0 L 208.0 415.0 L 207.0 416.0 L 207.0 422.0 L 206.0 423.0 L 206.0 427.0 L 205.0 428.0 L 205.0 434.0 L 204.0 435.0 L 204.0 437.0 L 208.0 437.0 L 209.0 438.0 L 214.0 438.0 L 215.0 439.0 L 220.0 439.0 L 221.0 440.0 L 226.0 440.0 L 227.0 441.0 L 233.0 441.0 L 233.0 436.0 L 234.0 435.0 L 234.0 430.0 L 235.0 429.0 L 235.0 424.0 L 236.0 423.0 L 236.0 418.0 L 237.0 417.0 L 237.0 412.0 L 238.0 411.0 L 238.0 405.0 L 239.0 404.0 L 239.0 400.0 L 240.0 399.0 L 240.0 396.0 L 242.0 395.0 L 243.0 396.0 L 247.0 396.0 L 248.0 397.0 L 253.0 397.0 L 254.0 398.0 L 259.0 398.0 L 260.0 399.0 L 263.0 399.0 L 264.0 400.0 L 264.0 403.0 L 263.0 404.0 L 263.0 408.0 L 262.0 409.0 L 262.0 415.0 L 261.0 416.0 L 261.0 421.0 L 260.0 422.0 L 260.0 427.0 L 259.0 428.0 L 259.0 433.0 L 258.0 434.0 L 258.0 439.0 L 257.0 440.0 L 257.0 445.0 L 258.0 446.0 L 263.0 446.0 L 264.0 447.0 L 269.0 447.0 L 270.0 448.0 L 275.0 448.0 L 276.0 449.0 L 281.0 449.0 L 282.0 450.0 L 285.0 450.0 L 285.0 448.0 L 286.0 447.0 L 286.0 441.0 L 287.0 440.0 L 287.0 435.0 L 288.0 434.0 L 288.0 429.0 L 289.0 428.0 L 289.0 423.0 L 290.0 422.0 L 290.0 417.0 L 291.0 416.0 L 291.0 411.0 L 292.0 410.0 L 292.0 405.0 L 294.0 403.0 L 295.0 404.0 L 306.0 404.0 L 307.0 405.0 L 329.0 405.0 L 330.0 404.0 L 338.0 404.0 L 339.0 403.0 L 343.0 403.0 L 344.0 402.0 L 351.0 401.0 L 357.0 398.0 L 359.0 398.0 L 363.0 396.0 L 368.0 392.0 L 369.0 392.0 L 379.0 382.0 L 379.0 381.0 L 382.0 378.0 L 387.0 368.0 L 388.0 363.0 L 390.0 360.0 L 391.0 353.0 L 392.0 352.0 L 392.0 347.0 L 393.0 346.0 L 393.0 328.0 L 392.0 327.0 L 392.0 323.0 L 391.0 322.0 L 391.0 320.0 L 390.0 319.0 L 390.0 317.0 L 388.0 313.0 L 383.0 307.0 L 383.0 306.0 L 374.0 298.0 L 373.0 298.0 L 368.0 294.0 L 362.0 291.0 L 360.0 291.0 L 359.0 290.0 L 371.0 284.0 L 373.0 282.0 L 374.0 282.0 L 382.0 274.0 L 382.0 273.0 L 384.0 271.0 L 388.0 263.0 L 388.0 261.0 L 390.0 257.0 L 390.0 253.0 L 391.0 252.0 L 391.0 246.0 L 392.0 245.0 L 392.0 237.0 L 391.0 236.0 L 391.0 230.0 L 390.0 229.0 L 390.0 226.0 L 388.0 223.0 L 388.0 221.0 L 386.0 217.0 L 384.0 215.0 L 384.0 214.0 L 376.0 205.0 L 375.0 205.0 L 368.0 199.0 L 365.0 198.0 L 363.0 196.0 L 355.0 192.0 L 353.0 192.0 L 350.0 190.0 L 348.0 190.0 L 347.0 189.0 L 345.0 189.0 L 344.0 188.0 L 342.0 188.0 L 341.0 187.0 L 339.0 187.0 L 335.0 185.0 L 332.0 185.0 L 329.0 183.0 L 329.0 180.0 L 330.0 179.0 L 330.0 174.0 L 331.0 173.0 L 331.0 168.0 L 332.0 167.0 L 332.0 162.0 L 333.0 161.0 L 333.0 155.0 L 334.0 154.0 L 334.0 150.0 L 335.0 149.0 L 335.0 143.0 L 336.0 142.0 L 336.0 139.0 L 334.0 138.0 L 328.0 138.0 L 327.0 137.0 L 323.0 137.0 L 322.0 136.0 L 316.0 136.0 L 315.0 135.0 L 310.0 135.0 L 308.0 134.0 L 307.0 136.0 L 307.0 141.0 L 306.0 142.0 L 306.0 147.0 L 305.0 148.0 L 305.0 153.0 L 304.0 154.0 L 304.0 159.0 L 303.0 160.0 L 303.0 165.0 L 302.0 166.0 L 302.0 171.0 L 301.0 172.0 L 301.0 176.0 L 299.0 178.0 L 298.0 177.0 L 292.0 177.0 L 291.0 176.0 L 286.0 176.0 L 285.0 175.0 L 279.0 175.0 L 277.0 173.0 L 277.0 168.0 L 278.0 167.0 L 278.0 162.0 L 279.0 161.0 L 279.0 156.0 L 280.0 155.0 L 280.0 150.0 L 281.0 149.0 L 281.0 144.0 L 282.0 143.0 L 282.0 138.0 L 283.0 137.0 L 283.0 132.0 L 284.0 131.0 L 283.0 130.0 L 280.0 130.0 L 279.0 129.0 L 274.0 129.0 L 273.0 128.0 L 267.0 128.0 L 266.0 127.0 L 262.0 127.0 L 261.0 126.0 Z M 257.0 297.0 L 258.0 296.0 L 262.0 296.0 L 263.0 297.0 L 270.0 297.0 L 271.0 298.0 L 276.0 298.0 L 277.0 299.0 L 282.0 299.0 L 283.0 300.0 L 287.0 300.0 L 288.0 301.0 L 291.0 301.0 L 292.0 302.0 L 299.0 303.0 L 300.0 304.0 L 302.0 304.0 L 303.0 305.0 L 308.0 306.0 L 320.0 312.0 L 323.0 315.0 L 324.0 315.0 L 329.0 320.0 L 329.0 321.0 L 333.0 326.0 L 333.0 328.0 L 334.0 329.0 L 334.0 332.0 L 335.0 333.0 L 335.0 340.0 L 334.0 341.0 L 334.0 345.0 L 330.0 353.0 L 325.0 358.0 L 324.0 358.0 L 322.0 360.0 L 316.0 363.0 L 314.0 363.0 L 313.0 364.0 L 310.0 364.0 L 309.0 365.0 L 304.0 365.0 L 303.0 366.0 L 279.0 366.0 L 278.0 365.0 L 271.0 365.0 L 270.0 364.0 L 264.0 364.0 L 263.0 363.0 L 258.0 363.0 L 257.0 362.0 L 252.0 362.0 L 251.0 361.0 L 248.0 361.0 L 247.0 360.0 L 247.0 355.0 L 248.0 354.0 L 248.0 349.0 L 249.0 348.0 L 249.0 343.0 L 250.0 342.0 L 250.0 337.0 L 251.0 336.0 L 251.0 331.0 L 252.0 330.0 L 252.0 325.0 L 253.0 324.0 L 253.0 319.0 L 254.0 318.0 L 254.0 312.0 L 255.0 311.0 L 255.0 307.0 L 256.0 306.0 L 256.0 300.0 L 257.0 299.0 Z M 271.0 209.0 L 272.0 208.0 L 275.0 208.0 L 276.0 209.0 L 282.0 209.0 L 283.0 210.0 L 289.0 210.0 L 290.0 211.0 L 299.0 212.0 L 300.0 213.0 L 303.0 213.0 L 304.0 214.0 L 306.0 214.0 L 307.0 215.0 L 312.0 216.0 L 324.0 222.0 L 332.0 230.0 L 332.0 231.0 L 335.0 235.0 L 335.0 238.0 L 336.0 239.0 L 336.0 249.0 L 335.0 250.0 L 335.0 253.0 L 332.0 259.0 L 326.0 265.0 L 325.0 265.0 L 323.0 267.0 L 321.0 268.0 L 319.0 268.0 L 318.0 269.0 L 316.0 269.0 L 315.0 270.0 L 312.0 270.0 L 311.0 271.0 L 285.0 271.0 L 284.0 270.0 L 277.0 270.0 L 276.0 269.0 L 271.0 269.0 L 270.0 268.0 L 266.0 268.0 L 265.0 267.0 L 263.0 267.0 L 262.0 266.0 L 262.0 264.0 L 263.0 263.0 L 263.0 258.0 L 264.0 257.0 L 264.0 251.0 L 265.0 250.0 L 265.0 246.0 L 266.0 245.0 L 266.0 239.0 L 267.0 238.0 L 267.0 234.0 L 268.0 233.0 L 268.0 227.0 L 269.0 226.0 L 269.0 221.0 L 270.0 220.0 L 270.0 215.0 L 271.0 214.0 Z" fill="#ffffff" fill-rule="evenodd" clip-rule="evenodd"/>
</svg>
